<svg xmlns="http://www.w3.org/2000/svg" width="126" height="120" fill="none" viewBox="0 0 126 120">
    <path fill="#AEE7D1" d="M85.574 42.5l-22.5 67.5c.776 0 1.509-.36 1.981-.975l51.093-66.42-.066-.105H85.574z"/>
    <path fill="#81CFB1" d="M116.082 42.5L95.574 10l-10 32.5h30.508z"/>
    <path fill="#9BDAC1" d="M30.574 10L10.066 42.5h30.508l-10-32.5z"/>
    <path fill="#AEE7D1" d="M10.066 42.5l-.066.104 51.093 66.421c.472.615 1.204.975 1.98.975l-22.5-67.5H10.067zM63.074 10h-32.5l10 32.5 22.5-32.5z"/>
    <path fill="#81CFB1" d="M40.574 42.5l22.5 67.5 22.5-67.5h-45z"/>
    <path fill="#AEE7D1" d="M95.574 10h-32.5l22.5 32.5 10-32.5z"/>
    <path fill="#9BDAC1" d="M85.574 42.5L63.074 10l-22.5 32.5h45z"/>
</svg>
