<svg xmlns="http://www.w3.org/2000/svg" width="140" height="120" fill="none" viewBox="0 0 140 120">
    <path fill="#FFD7BF" d="M62.995 65.7l-9.14 13.13-5.17 7.42-20.91 30.02c-.07.11-.16.2-.24.28-.38.34-.83.43-1.2.3-.22-.08-.42-.23-.51-.44-.05-.12-.11-.26-.12-.42l-2.11-20.63c0-.05-.01-.12-.04-.19-.01-.07-.04-.12-.07-.17-.03-.07-.07-.12-.09-.15-.01-.04-.04-.07-.07-.08-.04-.05-.11-.11-.16-.13-.22-.16-.51-.21-.82-.13l-20.09 5.14c-1.05.26-1.64-.89-.97-1.84l28.38-40.75 1.68-2.41 5.15-7.4c.43-.6 1.16-.81 1.65-.47l12.35 8.61 4.14 2.86v.01l5.93 4.13 2.3 1.6c.49.35.55 1.1.13 1.71zM138.045 99.65l-20.12-5.16c-.3-.08-.59-.03-.82.13l-.01.01c-.05.01-.11.07-.15.12-.01.03-.04.07-.07.11-.04.03-.07.07-.08.12-.03.05-.05.11-.07.17-.01.07-.03.13-.03.19l-2.14 20.63c-.01.08-.03.15-.04.22-.04.13-.09.24-.16.34v.01c-.11.13-.26.24-.4.3h-.01c-.21.07-.43.07-.64.01-.28-.08-.58-.27-.79-.59l-21.76-31.23-4.99-7.14-8.48-12.2c-.36-.52-.36-1.16-.04-1.55.04-.05.11-.11.17-.16l1.12-.77 4.66-3.25 6.57-4.58 12.35-8.61c.5-.34 1.25-.13 1.65.47l3.21 4.61 1.14 1.64 30.86 44.32c.69.95.09 2.1-.93 1.84z"/>
    <path fill="url(#prefix__paint0_linear)" d="M109.76 42.37c0 1.69-.1 3.35-.32 4.99v.03c-.19 1.52-.47 3.01-.84 4.47-1.5 6.08-4.4 11.61-8.38 16.21-3.53 4.1-7.9 7.46-12.83 9.82-5.15 2.48-10.92 3.86-17.01 3.86-5.28 0-10.32-1.04-14.91-2.92v-.01c-5.08-2.07-9.62-5.18-13.37-9.05-4.11-4.23-7.26-9.38-9.14-15.12-.77-2.32-1.32-4.76-1.64-7.26v-.03c-.22-1.64-.32-3.3-.32-4.99C31.01 20.63 48.64 3 70.38 3c21.75 0 39.38 17.63 39.38 39.37z"/>
    <path fill="#fff" d="M72.567 22.24l5.44 11.02c.3.6.87 1.02 1.54 1.12l12.16 1.77c1.68.24 2.35 2.3 1.13 3.49l-8.8 8.58c-.48.47-.7 1.15-.59 1.81l2.08 12.12c.29 1.67-1.47 2.94-2.97 2.15l-10.88-5.72c-.6-.31-1.31-.31-1.9 0l-10.88 5.72c-1.5.79-3.25-.49-2.97-2.15l2.08-12.12c.11-.66-.11-1.34-.59-1.81l-8.8-8.58c-1.21-1.18-.54-3.24 1.13-3.49l12.16-1.77c.67-.1 1.24-.51 1.54-1.12l5.44-11.02c.76-1.52 2.93-1.52 3.68 0z"/>
    <defs>
        <linearGradient id="prefix__paint0_linear" x1="70" x2="70" y1="82" y2="3" gradientUnits="userSpaceOnUse">
            <stop stop-color="#F2B996"/>
            <stop offset="1" stop-color="#FFD7BF"/>
        </linearGradient>
    </defs>
</svg>
