<svg xmlns="http://www.w3.org/2000/svg" width="126" height="120" fill="none" viewBox="0 0 126 120">
    <rect width="40.655" height="40.655" fill="#ADDCF7" rx="4"/>
    <rect width="55.054" height="40.655" x="70.299" y="67.758" fill="#ADDCF7" rx="4"/>
    <path fill="url(#prefix__paint0_linear)" d="M106.707 12c-2.778 0-5.099 2.117-5.404 4.82-.025.203-.034.406-.034.618V42.88h.034v71.51c0 2.99-2.448 5.438-5.437 5.438H28.438c-2.99 0-5.438-2.448-5.438-5.438V17.438c0-.212.017-.415.034-.619C23.339 14.117 25.65 12 28.438 12h78.269z"/>
    <path fill="#91CAEB" d="M95.785 120H18.413c-2.99 0-5.437-2.448-5.437-5.438v-10.401c0-2.38 1.93-4.31 4.31-4.31h68.759c2.38 0 4.31 1.93 4.31 4.31v10.401c-.008 2.999 2.44 5.438 5.43 5.438z"/>
    <path fill="#2081B9" d="M112.064 17.753v16.541c0 2.38-1.931 4.311-4.311 4.311h-6.564V17.61c0-.212.017-.415.033-.619.305-2.66 2.541-4.743 5.252-4.819 3.074-.076 5.59 2.507 5.59 5.582z"/>
    <path fill="#fff" d="M61.756 36.4L56.302 49h-2.88l-5.436-12.6h3.15l3.834 9 3.888-9h2.898zm12.609 0V49H71.97l-6.282-7.65V49h-2.88V36.4h2.412l6.263 7.65V36.4h2.88zM52.307 66.06c2.208.36 3.9 1.188 5.076 2.484 1.176 1.272 1.764 2.856 1.764 4.752 0 1.464-.384 2.82-1.152 4.068-.768 1.224-1.944 2.208-3.528 2.952-1.56.744-3.48 1.116-5.76 1.116-1.776 0-3.528-.228-5.256-.684-1.704-.48-3.156-1.152-4.356-2.016l2.268-4.464c.96.72 2.064 1.284 3.312 1.692 1.272.384 2.568.576 3.888.576 1.464 0 2.616-.276 3.456-.828.84-.576 1.26-1.38 1.26-2.412 0-2.064-1.572-3.096-4.716-3.096h-2.664v-3.852l5.184-5.868H40.355V55.8h17.64v3.78l-5.688 6.48zm20.332 15.372c-2.087 0-3.947-.516-5.58-1.548-1.632-1.032-2.915-2.52-3.851-4.464-.913-1.968-1.368-4.308-1.368-7.02 0-2.712.455-5.04 1.367-6.984.937-1.968 2.22-3.468 3.852-4.5 1.633-1.032 3.493-1.548 5.58-1.548 2.089 0 3.949.516 5.58 1.548 1.633 1.032 2.905 2.532 3.817 4.5.936 1.944 1.403 4.272 1.403 6.984 0 2.712-.467 5.052-1.403 7.02-.912 1.944-2.184 3.432-3.817 4.464-1.631 1.032-3.491 1.548-5.58 1.548zm0-4.932c1.537 0 2.737-.66 3.6-1.98.888-1.32 1.332-3.36 1.332-6.12 0-2.76-.444-4.8-1.331-6.12-.864-1.32-2.064-1.98-3.6-1.98-1.513 0-2.713.66-3.6 1.98-.865 1.32-1.297 3.36-1.297 6.12 0 2.76.433 4.8 1.297 6.12.887 1.32 2.087 1.98 3.6 1.98z"/>
    <defs>
        <linearGradient id="prefix__paint0_linear" x1="64.854" x2="64.854" y1="1.39" y2="113.324" gradientUnits="userSpaceOnUse">
            <stop stop-color="#ABDBF5"/>
            <stop offset="1" stop-color="#2081B9"/>
        </linearGradient>
    </defs>
</svg>
