<svg xmlns="http://www.w3.org/2000/svg" width="23" height="24" fill="none" viewBox="0 0 23 24">
    <path fill="#000" d="M11.503 1.992c2.786 0 5.458 1.106 7.428 3.076 1.97 1.97 3.076 4.642 3.076 7.428 0 2.786-1.106 5.458-3.076 7.428-1.97 1.97-4.642 3.077-7.428 3.077-2.786 0-5.458-1.107-7.428-3.077-1.97-1.97-3.077-4.642-3.077-7.428 0-2.786 1.107-5.458 3.077-7.428 1.97-1.97 4.642-3.076 7.428-3.076zm0 1c-2.52 0-4.938 1.001-6.72 2.784-1.783 1.782-2.784 4.2-2.784 6.72 0 2.52 1.001 4.938 2.783 6.72C6.565 21 8.982 22 11.502 22c2.521 0 4.939-1 6.721-2.783 1.783-1.783 2.784-4.2 2.784-6.72 0-2.521-1.001-4.939-2.784-6.721-1.782-1.783-4.2-2.784-6.72-2.784zM4.35 19.85l.8.6-2.05 2.752-.801-.6 2.05-2.752zm13.486.57l.8-.6 2.07 2.782-.8.6-2.07-2.781zm-6.833-8.423V4.993h1v8.003H6v-1h5.003zm9.934-2.951l-.58-.81c.482-.353.88-.808 1.163-1.334.283-.526.445-1.108.474-1.705.03-.597-.076-1.192-.307-1.743-.23-.55-.582-1.042-1.029-1.44-.446-.397-.975-.69-1.549-.855-.573-.166-1.177-.201-1.766-.104-.59.098-1.15.326-1.639.669-.49.342-.896.79-1.19 1.31l-.87-.491c.367-.65.876-1.21 1.487-1.637.612-.428 1.312-.713 2.049-.835.736-.123 1.49-.078 2.208.13.717.207 1.379.572 1.936 1.069.558.496.997 1.111 1.286 1.8.29.688.42 1.432.384 2.178-.036.746-.239 1.474-.593 2.13-.354.658-.851 1.228-1.454 1.668h-.01zM9.362 2.542l-.87.48c-.296-.513-.701-.954-1.188-1.292-.486-.337-1.041-.563-1.626-.66-.584-.097-1.182-.063-1.751.1-.57.162-1.096.448-1.541.838-.446.39-.799.875-1.034 1.418-.236.543-.348 1.132-.329 1.723.02.592.17 1.172.441 1.699.27.526.655.986 1.125 1.346l-.6.8C1.396 8.548.91 7.975.567 7.315.223 6.657.03 5.93.003 5.188c-.027-.743.111-1.482.405-2.164.294-.682.736-1.29 1.294-1.78.559-.49 1.22-.85 1.934-1.053C4.35-.013 5.1-.054 5.833.07c.733.123 1.429.408 2.037.834.609.426 1.115.982 1.482 1.628l.01.01z"/>
</svg>
