<svg xmlns="http://www.w3.org/2000/svg" width="23" height="24" fill="none" viewBox="0 0 23 24">
    <path stroke="#000" stroke-linecap="square" stroke-miterlimit="10" d="M8.5 13.5h10M8.5 17.5h10M18.5 5.5h-10v4h10v-4zM2.5 22.5c-.53-.002-1.038-.213-1.412-.588C.713 21.538.502 21.03.5 20.5v-8h1"/>
    <path stroke="#000" stroke-linecap="square" stroke-miterlimit="10" d="M4.5.5v20c-.002.53-.213 1.038-.588 1.412-.374.375-.882.586-1.412.588h18c.53-.002 1.038-.213 1.412-.588.375-.374.586-.882.588-1.412V.5h-18z"/>
</svg>
