<svg xmlns="http://www.w3.org/2000/svg" width="412" height="99" fill="none" viewBox="0 0 412 99">
    <path fill="#C42127" d="M330.904 47.206c-1.26-13.783-10.285-18.181-12.663-19.685-1.88 3.804-3.315 7.861-4.154 12.146 0 1.627-3.498 12.89 2.641 27.915 7.319 18.084 25.081 30.86 45.868 30.86 9.182 0 17.752-2.535 25.124-6.873 2.143-16.545-10.476-26.034-19.283-33.213-9.182-7.469-8.342-18.269-7.512-21.915.096-.438.228-.84.385-1.225-5.299.709-6.515-4.136-6.515-4.136s6.76 1.933 10.468-.262c1.889-.962 3.419-2.659 3.419-5.527-.367-3.717-3.323-5.221-5.78-5.457-11.518-1.11-15.776 8.15-15.776 8.15-6.472 13.87 8.596 27.101 13.047 34.22.927 1.495 1.898 3.611 2.379 5.142 3.314 13.782-6.917 23.069-17.455 23.121-12.514-.21-17.595-10.179-18.225-17.035-1.058-10.59 4.425-18.636 4.032-26.226zm67.87-31.308c.026-.026.035-.052.052-.078C389.793 6.113 376.929 0 362.587 0c-14.526 0-27.879 6.384-36.93 16.31 15.452 14.149 11.735 28.954 9.995 35.426-2.964 10.266-4.355 14.709-4.355 20.323-.21 12.89 10.617 13.004 11.194 12.925 7.73-.078 11.788-6.89 11.158-12.61-.419-3.892-.988-8.518-5.876-17.682-7.687-15.532-7.722-21.977-6.472-27.058-5.71-3-6.961-8.91-5.343-13.633 3.752 5.343 11.517 7.302 17.849 4.267.822-.393 2.396-1.206 3.629-1.626 8.64-2.37 14.289 1.889 16.869 5.448 7.407 2.449 11.106 9.209 11.963 14.552-3.725-4.976-10.424-5.221-13.843-3.297-3.944 2.125-5.676 5.658-5.973 7.818-2.081 9.54 8.684 14.788 21.364 25.072 7.696 6.436 10.215 12.759 11.054 16.336 2.282-2.466 4.145-4.906 5.894-7.792-8.089-8.815-13.021-20.56-13.021-33.459 0-5.142.787-10.091 2.239-14.761 1.862-6.787 4.687-10.59 4.687-10.59l.105-.07zm12.365 24.05c-.839-4.33-2.256-8.448-4.145-12.296 0 0-.183-.385-.498-1.006-4.539 6.804-7.18 14.92-7.18 23.647 0 4.626.752 9.077 2.116 13.266.761 2.064 1.662 4.215 2.738 6.463.515 1.005 1.084 1.985 1.679 2.938 1.049-1.906 2.011-3.883 2.807-5.93 5.212-15.775 2.877-24.53 2.483-27.083zM121.25 30.45c0-8.29 4.853-15.994 13.966-15.994 5.894 0 9.165 2.352 10.634 8.132l.944-.472c.271-2.308.455-2.947.822-6.287-1.521-.28-5.544-3.324-10.931-3.324-12.164 0-20.997 7.521-20.997 19.038 0 8.675 5.938 18.059 19.528 18.059 3.926 0 8.657-1.25 10.188-1.583.979-1.854 1.941-5.273 2.956-8.238l-1.583-.55c-2.729 5.404-5.676 8.403-11.238 8.403-8.281 0-14.289-6.987-14.289-17.184zm59.431 17.901c0-.367-.332-.638-.813-.638-.306 0-.901-.026-1.495-.21-.691-.219-1.749-.55-3.227-4.058-1.277-3.052-3.621-8.823-5.685-13.922-1.915-4.713-3.568-8.797-3.926-9.593-.079-.175-.158-.332-.219-.481-.271-.621-.489-1.11-1.023-1.11-.498 0-.735.41-1.25 1.713l-9.428 24.224c-.795 2.02-1.539 3.157-3.122 3.35-.306.043-.883.087-1.136.087-.368 0-.683.297-.683.638 0 .42.368.639 1.094.639 1.093 0 2.361-.062 3.2-.096.411-.018.726-.035.849-.035.183 0 .647.017 1.206.052.814.035 1.819.087 2.396.087.822 0 .91-.446.91-.638 0-.149-.053-.638-.726-.638h-.367c-.394 0-1.05-.088-1.05-.726 0-.621.21-1.53.578-2.484l2.221-6.051v.008l1.268-3.445 3.34-9.515c.018-.044.035-.079.044-.105.018.026.035.061.053.105l3.9 10.46h-4.53c-1.88.07-2.763 1.626-3.052 2.22.017-.034 0 0 .017 0h8.422c.009.01.009.018.017.027l3.603 8.893c.062.167.079.307.035.411-.052.114-.148.193-.253.237l-.079.035c-.14.06-.367.166-.367.524 0 .499.594.534 1.425.578l.289.008c1.793.061 4.049.096 6.34.096 1.067-.017 1.224-.41 1.224-.647zm25.58-22.527c0-2.247-1.303-4.093-2.432-4.993-.813-.63-2.973-2.309-8.981-2.309-1.242 0-2.947.035-4.346.061-.953.018-1.767.035-2.169.035-.105 0-.42 0-.883-.017-1.111-.035-2.956-.079-4.434-.079-.271 0-1.093 0-1.093.647 0 .315.367.656.726.656.393 0 1.163.052 1.513.087 1.242.158 1.469.586 1.565 1.898.105 1.242.105 2.353.105 8.492v6.978c0 3.857 0 6.909-.254 8.509l-.026.114c-.201 1.128-.306 1.591-.909 1.723-.385.078-.936.166-1.329.166-.464 0-.726.332-.726.655 0 .237.14.648 1.093.648 1.067 0 3.026-.08 3.97-.123.306-.008.516-.026.56-.026.052 0 .227.009.516.026.979.035 3.27.123 5.22.123 1.006 0 1.094-.499 1.094-.648 0-.314-.254-.655-.726-.655-.385 0-1.81-.088-2.44-.184-1.102-.14-1.356-.595-1.522-1.81-.21-1.61-.21-4.661-.21-8.527v-16.09c0-.342.079-.43.079-.43.481-.087 2.213-.27 2.938-.27l.28-.009c.131 0 .271-.009.429-.009 1.373 0 3.402.193 5.238 1.82 2.492 2.186 2.492 4.888 2.492 5.771 0 3.446-3.996 6.052-8.631 6.052-.665 0-1.565 0-1.565.734 0 .394.481.691.76.691.21.035.63.053 1.373.053 7.32 0 12.725-3.918 12.725-9.76zm14.044 22.527c0-.306-.219-.638-.63-.638-.323 0-1.163-.079-1.766-.175-.927-.14-1.058-.568-1.198-1.766-.184-1.583-.184-4.565-.184-8.343v-6.83c0-6.017 0-7.101.044-8.308.087-1.347.306-1.67 1.163-1.854.42-.079.673-.079.944-.079.307 0 .63-.332.63-.638 0-.638-.717-.638-.953-.638-.892 0-2.519.052-3.384.07-.333.008-.569.017-.621.017-.07 0-.324-.009-.691-.017-.901-.027-2.423-.07-3.358-.07-.236 0-.953 0-.953.638 0 .297.271.638.629.638.263 0 .735.044 1.163.132.595.122.936.446 1.032 1.81.088 1.215.088 2.3.088 8.308v6.83c0 4.468-.062 6.96-.219 8.334-.149 1.233-.297 1.67-.813 1.784-.341.078-.814.166-1.155.166-.411 0-.638.332-.638.638 0 .236.131.638.953.638.866 0 2.353-.06 3.245-.104.376-.027.655-.035.717-.035.043 0 .192.008.437.017.848.035 2.833.122 4.582.122.875-.017.936-.498.936-.647zm28.78-25.675c.044-1.058.087-2.37.087-3.105 0-.236 0-.778-.489-.778-.14 0-.315.035-.569.079-.175.035-.376.07-.621.105-.848.122-1.766.175-2.833.175h-15.111c-.438 0-1.968-.044-3.105-.184-.638-.079-1.032-.219-1.303-.324-.192-.07-.359-.13-.507-.13-.35 0-.507.41-.682.856l-.044.149c-.009.096-.131.63-.262 1.19-.35 1.556-.613 2.771-.613 3.043 0 .393.307.638.586.638.368 0 .595-.184.691-.534.044-.078.079-.166.105-.253.088-.21.193-.472.507-.945.508-.787 1.4-1.04 3.796-1.084l5.465-.088V37.43c0 3.778 0 6.76-.183 8.334-.149 1.25-.376 1.705-.945 1.828-.454.113-.839.174-1.11.174-.42 0-.63.289-.63.586 0 .639.717.639.944.639.858 0 2.572-.07 3.49-.105.358-.018.612-.026.664-.026.053 0 .245.008.534.017.901.035 2.781.114 4.434.114.892 0 .953-.481.953-.639 0-.384-.254-.638-.63-.638-.35 0-1.242-.087-1.784-.175-.988-.14-1.137-.62-1.285-1.766-.175-1.583-.175-4.565-.175-8.343V21.478l4.678.087c3.796.096 4.417.953 4.53 1.872l.044.393c.035.341.079.97.63.97.332 0 .682-.288.682-.812.017-.175.043-.683.061-1.312zm29.707 25.675c0-.367-.35-.638-.822-.638-.306 0-.892-.026-1.496-.21-.69-.219-1.74-.55-3.209-4.058-1.277-3.052-3.629-8.823-5.702-13.922-1.915-4.713-3.559-8.797-3.918-9.593-.087-.175-.148-.332-.218-.481-.28-.621-.49-1.11-1.032-1.11-.499 0-.735.41-1.251 1.713l-9.427 24.224c-.804 2.02-1.53 3.157-3.13 3.35-.307.043-.884.087-1.137.087-.368 0-.674.297-.674.638 0 .42.368.639 1.085.639 1.11 0 2.37-.062 3.2-.096.411-.018.717-.035.857-.035.175 0 .656.017 1.207.052.805.035 1.81.087 2.388.087.822 0 .909-.446.909-.638 0-.149-.052-.638-.726-.638h-.367c-.394 0-1.058-.088-1.058-.726 0-.621.218-1.53.577-2.484l2.221-6.051v.008l1.259-3.445 3.341-9.515c.018-.044.035-.079.053-.105.008.026.017.061.043.105l3.909 10.46h-4.538c-1.863.07-2.755 1.626-3.052 2.22.017-.034 0 0 .017 0h8.422c0 .01.008.018.026.027l3.594 8.893c.079.167.087.307.044.411-.044.114-.149.193-.263.237l-.078.035c-.14.06-.368.166-.368.524 0 .499.595.534 1.426.578l.297.008c1.802.061 4.049.096 6.34.096 1.085-.017 1.251-.41 1.251-.647zm21.539-4.503c0-.752-.324-.91-.595-.91-.358 0-.638.297-.717.77-.14.796-.463 1.539-.892 2.037-.839.997-2.422 1.076-4.582 1.076-2.965 0-4.539-.254-5.116-.822-.673-.63-.717-3.62-.717-8.465v-6.926c0-6.017 0-7.101.044-8.308.087-1.382.314-1.723 1.215-1.898.446-.044 1.032-.096 1.294-.096.289 0 .63-.254.63-.586 0-.236-.122-.638-.944-.638-.901 0-2.738.052-3.726.07-.376.008-.647.017-.691.017-.07 0-.271-.009-.586-.017-.909-.027-2.614-.08-3.97-.08-.236 0-.953 0-.953.64 0 .305.323.638.638.638.35 0 1.015.043 1.321.087 1.075.149 1.268.569 1.355 1.854.096 1.216.096 2.3.096 8.308v6.83c0 3.778 0 6.76-.227 8.325l-.009.114c-.183 1.102-.271 1.565-.795 1.679-.341.079-.814.166-1.164.166-.411 0-.629.332-.629.638 0 .289.166.639.953.639.638 0 1.513-.044 2.335-.096 1.329-.08 2.755-.035 4.819.017l1.163.026c1.915.096 4.136.14 6.978.14 2.169 0 2.519-.148 2.851-1.277.332-1.163.621-3.524.621-3.952z"/>
    <path fill="#00377B" d="M36.94 14.56c0-.42-.368-.638-1.094-.638-.91 0-2.151.061-2.886.105-.341.018-.577.035-.665.035-.192 0-.577-.017-1.067-.044-.935-.035-2.212-.096-3.401-.096-.499 0-1.32 0-1.32.682 0 .219.104.595.821.595.481 0 1.128 0 1.583.149.367.175.42.56.42.76 0 .403-.219 1.129-.394 1.636-.927 3.026-6.602 17.866-9.427 24.52l-8.465-22.579-.035-.096c-.638-1.635-1.18-3.052-1.18-3.577 0-.262.07-.463.41-.62.324-.15 1.067-.202 1.592-.202.673 0 .778-.402.778-.638 0-.639-.97-.639-1.547-.639-1.155 0-2.458.062-3.315.097-.437.026-.77.035-.927.035-.184 0-.586-.018-1.128-.035-1.093-.035-2.737-.097-4.198-.097-.63 0-1.495 0-1.495.639 0 .385.262.638.682.638.254 0 1.006 0 1.644.166 1.443.411 2.081.805 3.07 3.324l11.158 27.914.114.27c.83 2.117 1.084 2.755 1.828 2.755.55 0 .76-.463 1.443-1.993.2-.446.446-.989.752-1.645 1.005-2.142 2.886-6.646 5.5-12.898l1.977-4.758c1.679-4.04 3.13-7.52 3.506-8.509 1.199-3.008 1.855-3.769 2.38-4.127.786-.49 1.713-.49 2.01-.49.761-.009.875-.411.875-.638zm12.032 33.791c0-.306-.227-.638-.638-.638-.324 0-1.155-.079-1.767-.175-.918-.14-1.05-.568-1.198-1.766-.183-1.583-.183-4.565-.183-8.352v-6.83c0-6.016 0-7.1.043-8.316.096-1.338.298-1.67 1.155-1.854.42-.079.682-.079.944-.079.306 0 .63-.332.63-.638 0-.639-.717-.639-.953-.639-.892 0-2.51.053-3.385.07-.34.009-.568.018-.62.018-.062 0-.324-.009-.691-.018-.91-.026-2.432-.07-3.359-.07-.236 0-.953 0-.953.639 0 .297.271.638.639.638.253 0 .734.044 1.163.131.594.123.935.446 1.023 1.81.096 1.216.096 2.3.096 8.308v6.83c0 2.973-.026 6.594-.219 8.343-.148 1.207-.288 1.67-.813 1.784-.332.079-.813.166-1.154.166-.411 0-.639.332-.639.638 0 .289.167.639.954.639.865 0 2.352-.061 3.253-.105.367-.026.638-.035.708-.035.044 0 .192.009.437.017.849.035 2.834.123 4.583.123.874-.009.944-.49.944-.639zm24.12-.507c.235-.848.559-3.515.559-3.821 0-.787-.368-.91-.595-.91-.55 0-.647.534-.726.866-.218 1.548-.77 2.064-1.626 2.44-.997.393-2.877.393-3.892.393-3.996 0-5.877-.49-5.955-2.798-.035-.551-.026-3.043-.009-4.871.009-.726.009-1.347.009-1.723v-3.183c.883 0 6.436.052 7.46.175 1.59.192 1.713.664 1.792.98.166.454.166.813.166 1.162 0 .508.324.682.595.682.41 0 .682-.402.682-1.04 0-.254.087-1.697.175-2.475.061-.822.175-1.364.253-1.723.044-.201.07-.34.07-.455 0-.463-.288-.638-.542-.638-.245 0-.42.184-.656.437l-.157.158c-.324.323-.83.367-1.688.454h-.079c-.822.088-6.908.097-8.063.097V21.443v-.105c.814.009 6.515.052 7.145.14 2.213.28 2.423.542 2.615.988.166.411.21.997.21 1.25 0 .735.446.823.63.823.358 0 .594-.324.682-.665.06-.306.113-1.084.166-1.766.017-.368.043-.683.061-.823.052-.647.157-1.058.227-1.355.053-.201.097-.35.097-.49 0-.656-.42-.682-.499-.682-.175 0-.332.07-.463.123-.053.026-.105.052-.132.06l-.253.036c-.376.061-.945.148-1.54.192-.262.009-1.206.018-2.807.018-2.203 0-6.55-.009-7.704-.018h-.525c-.06 0-.28-.009-.594-.017-.945-.027-2.703-.079-4.05-.079-.235 0-.952 0-.952.638 0 .306.323.639.638.639.35 0 1.006.043 1.32.087 1.085.149 1.277.569 1.365 1.854.096 1.216.096 2.3.096 8.308v6.83c0 3.786 0 6.768-.227 8.334l-.027.14c-.175 1.154-.288 1.565-.752 1.653-.14.017-.306.052-.463.078-.263.053-.525.096-.726.096-.411 0-.63.333-.63.639 0 .288.166.638.953.638.534 0 1.295-.026 2.344-.096.796-.035 1.513-.044 1.714-.044.569 0 1.627 0 3.315.088l.962.026c1.582.052 5.045.105 7.503.105 1.556-.009 2.195-.009 2.527-1.242zm29.89-28.273c0-.236 0-.77-.499-.77-.131 0-.306.027-.56.08-.166.035-.376.07-.62.105-.84.122-1.767.183-2.825.183H83.349c-.42 0-1.95-.044-3.096-.183-.638-.08-1.023-.22-1.311-.324-.193-.07-.35-.131-.508-.131-.314 0-.472.34-.673.857l-.053.14c-.017.096-.13.62-.253 1.18-.35 1.557-.612 2.773-.612 3.052 0 .42.332.639.586.639.367 0 .594-.184.69-.534.035-.078.07-.166.105-.253.088-.21.193-.472.508-.945.507-.787 1.399-1.04 3.786-1.084l5.466-.088V37.43c0 3.786 0 6.768-.175 8.343-.149 1.25-.394 1.705-.944 1.827-.455.114-.84.175-1.111.175-.42 0-.639.289-.639.586 0 .639.718.639.954.639.857 0 2.562-.07 3.48-.105.367-.018.612-.027.665-.027.052 0 .236.01.525.018.9.035 2.772.114 4.433.114.883 0 .954-.481.954-.639 0-.385-.254-.638-.639-.638-.35 0-1.242-.088-1.766-.175-.989-.14-1.146-.621-1.286-1.767-.184-1.583-.184-4.565-.184-8.351V21.478l4.688.087c3.795.096 4.416.954 4.521 1.872l.044.393c.026.341.078.971.638.971.324 0 .682-.289.682-.813 0-.175.018-.682.053-1.312.052-1.058.105-2.37.105-3.104zM173.161 72.199c0-4.679 2.745-9.025 7.888-9.025 3.323 0 5.168 1.33 6.007 4.591l.525-.262c.158-1.312.262-1.67.472-3.56-.865-.148-3.139-1.87-6.174-1.87-6.865 0-11.858 4.24-11.858 10.747 0 4.897 3.358 10.197 11.028 10.197 2.221 0 4.888-.709 5.754-.892.551-1.05 1.093-2.982 1.67-4.653l-.892-.306c-1.539 3.052-3.201 4.749-6.349 4.749-4.687-.009-8.071-3.953-8.071-9.716zM241.346 82.177c0-.21-.149-.428-.438-.428-.227 0-.795-.062-1.215-.123-.63-.096-.717-.393-.813-1.215-.132-1.085-.132-3.131-.132-5.728v-4.688c0-4.127 0-4.87.035-5.702.062-.927.21-1.154.796-1.268.289-.06.464-.06.656-.06.21 0 .437-.228.437-.438 0-.437-.498-.437-.664-.437-.612 0-1.714.035-2.326.052-.228.009-.394.009-.42.009-.044 0-.219-.009-.481-.009-.621-.017-1.662-.052-2.3-.052-.166 0-.647 0-.647.437 0 .21.183.437.437.437.175 0 .507.035.796.088.411.087.638.306.708 1.241.07.84.07 1.583.07 5.702v4.688c0 2.037-.026 4.52-.149 5.728-.105.822-.209 1.136-.551 1.215-.236.061-.568.123-.795.123-.28 0-.446.218-.446.428 0 .201.122.437.664.437.586 0 1.618-.052 2.222-.078.262-.01.446-.018.489-.018.035 0 .131 0 .306.009.577.017 1.942.079 3.14.079.577.008.621-.324.621-.429zM269.898 82.177c0-.21-.149-.428-.437-.428-.219 0-.796-.062-1.216-.123-.629-.096-.717-.393-.813-1.215-.131-1.085-.131-3.131-.131-5.728v-4.688c0-4.127 0-4.87.035-5.702.061-.927.21-1.154.796-1.268.288-.06.463-.06.655-.06.21 0 .438-.228.438-.438 0-.437-.49-.437-.656-.437-.621 0-1.723.035-2.326.052-.236.009-.394.009-.42.009-.053 0-.227-.009-.481-.009-.63-.017-1.662-.052-2.309-.052-.166 0-.647 0-.647.437 0 .21.184.437.437.437.175 0 .508.035.805.088.402.087.638.306.708 1.241.053.84.053 1.583.053 5.702v4.688c0 2.037-.009 4.52-.149 5.728-.096.822-.192 1.136-.551 1.215-.227.061-.568.123-.796.123-.28 0-.437.218-.437.428 0 .201.105.437.647.437.595 0 1.618-.052 2.221-.078.263-.01.446-.018.499-.018.017 0 .131 0 .297.009.586.017 1.942.079 3.14.079.594.008.638-.324.638-.429zM141.224 82.116c-.446-.184-.534-.306-.534-.91 0-1.451.123-3.113.158-3.55 0-.411.323-.69.533-.69.254 0 .437.366.437.559 0 .34.097.91.254 1.381.595 1.986 2.326 2.519 4.049 2.519 2.387 0 3.83-1.504 3.83-3.393 0-1.163-.044-2.624-2.501-4.075l-1.591-.945c-3.271-1.915-4.574-3.393-4.574-5.754 0-3.27 3.139-5.37 6.978-5.37 1.793 0 3.201.254 3.927.438.254.07.376.157.376.35 0 .35-.096 1.102-.096 3.2 0 .569-.21.849-.437.849-.193 0-.481-.15-.481-.464 0-.254.157-1.067-.438-1.766-.411-.499-1.285-1.25-3.078-1.25-1.985 0-3.769 1.04-3.769 2.859 0 1.198.358 2.597 2.842 3.987l1.128.63c3.647 2.011 4.862 3.586 4.862 6 0 1.984-.752 3.585-2.754 4.993-1.33.944-3.14 1.102-4.618 1.102-1.609-.01-3.305-.167-4.503-.7zM288.446 82.116c-.437-.184-.533-.306-.533-.91 0-1.451.131-3.113.166-3.55 0-.411.315-.69.534-.69.253 0 .437.366.437.559 0 .34.096.91.253 1.381.595 1.986 2.335 2.519 4.058 2.519 2.387 0 3.83-1.504 3.83-3.393 0-1.163-.043-2.624-2.501-4.075l-1.609-.945c-3.253-1.915-4.573-3.393-4.573-5.754 0-3.27 3.139-5.37 6.969-5.37 1.793 0 3.201.254 3.927.438.253.07.376.157.376.35 0 .35-.096 1.102-.096 3.2 0 .569-.219.849-.438.849-.183 0-.48-.15-.48-.464 0-.254.166-1.067-.438-1.766-.411-.499-1.294-1.25-3.087-1.25-1.976 0-3.769 1.04-3.769 2.859 0 1.198.35 2.597 2.834 3.987l1.128.63c3.646 2.011 4.862 3.586 4.862 6 0 1.984-.752 3.585-2.772 4.993-1.312.944-3.14 1.102-4.618 1.102-1.556-.01-3.262-.167-4.46-.7zM260.454 62.675c0-.148 0-.515-.333-.515-.087 0-.21.017-.376.052-.122.026-.253.052-.42.07-.568.079-1.198.122-1.915.122h-10.214c-.297 0-1.32-.035-2.107-.122-.438-.052-.691-.149-.884-.219-.131-.052-.236-.096-.35-.096-.209 0-.314.227-.454.577l-.035.097c-.009.06-.088.428-.175.795-.228 1.05-.411 1.872-.411 2.064 0 .28.227.437.402.437.245 0 .402-.13.464-.367.017-.052.043-.105.078-.166.053-.149.131-.324.341-.638.359-.534.954-.709 2.571-.735l3.691-.061v10.782c0 2.554 0 4.574-.123 5.641-.096.84-.262 1.154-.638 1.242-.306.078-.568.114-.752.114-.28 0-.437.2-.437.402 0 .437.489.437.656.437.577 0 1.722-.044 2.352-.079.236-.008.411-.017.446-.017.035 0 .166.008.358.008.613.027 1.881.088 3 .088.595 0 .647-.332.647-.437 0-.263-.175-.429-.437-.429-.236 0-.84-.061-1.198-.122-.674-.096-.778-.42-.866-1.19-.131-1.075-.131-3.095-.131-5.649V63.98l3.183.06c2.562.07 2.982.64 3.052 1.251l.035.271c.018.236.053.665.42.665.227 0 .463-.192.463-.55 0-.123.009-.464.035-.893.027-.717.062-1.6.062-2.108zM168.919 81.705c.166-.577.376-2.379.376-2.589 0-.533-.253-.612-.402-.612-.367 0-.446.359-.49.586-.148 1.05-.524 1.4-1.093 1.653-.673.27-1.95.27-2.641.27-2.711 0-3.988-.34-4.04-1.906-.018-.367-.009-2.063-.009-3.296 0-.49.009-.91.009-1.164V72.48c.595.008 4.364.035 5.063.122 1.076.131 1.163.455 1.216.665.105.306.105.55.105.796 0 .332.218.454.402.454.28 0 .455-.27.455-.708 0-.166.061-1.154.122-1.679.035-.551.114-.918.166-1.154.035-.14.053-.236.053-.306 0-.315-.201-.429-.367-.429-.167 0-.28.123-.446.289l-.105.105c-.21.218-.569.253-1.137.306l-.053.008c-.559.053-4.67.062-5.465.062v-7.198-.06c.551.008 4.416.034 4.844.095 1.496.193 1.644.368 1.767.665.114.28.14.673.14.848 0 .499.306.56.437.56.236 0 .394-.219.455-.455.044-.21.079-.734.105-1.198.017-.245.035-.455.043-.55.044-.447.105-.727.167-.928.035-.14.052-.236.052-.332 0-.437-.28-.464-.332-.464-.123 0-.228.044-.306.088-.035.017-.07.035-.096.035l-.167.026c-.253.035-.638.105-1.04.122-.184.01-.822.01-1.907.01-1.495 0-4.433-.01-5.221-.01h-.358c-.035 0-.184-.008-.402-.008-.639-.018-1.828-.053-2.746-.053-.158 0-.647 0-.647.429 0 .21.218.428.428.428.236 0 .691.035.901.062.726.096.866.384.927 1.25.061.822.061 1.566.061 5.632v4.626c0 2.571 0 4.582-.149 5.65l-.017.096c-.123.778-.193 1.066-.507 1.119-.097.009-.201.035-.315.052-.175.035-.35.062-.49.062-.28 0-.428.218-.428.437 0 .192.113.428.647.428.358 0 .883-.026 1.583-.06.542-.027 1.023-.027 1.163-.027.393 0 1.11 0 2.247.061l.647.018c1.076.035 3.42.07 5.09.07 1.049.008 1.478.008 1.705-.831zM285.185 81.705c.166-.577.376-2.379.376-2.589 0-.533-.254-.612-.403-.612-.367 0-.446.359-.489.586-.149 1.05-.525 1.4-1.094 1.653-.673.27-1.95.27-2.641.27-2.702 0-3.987-.34-4.04-1.906-.017-.367-.008-2.063 0-3.296v-3.332c.595.008 4.364.035 5.064.122 1.075.131 1.163.455 1.215.665.105.306.105.55.105.796 0 .332.219.454.402.454.28 0 .455-.27.455-.708 0-.166.061-1.154.131-1.679.035-.551.123-.918.166-1.154.035-.14.053-.236.053-.306 0-.315-.21-.429-.367-.429-.166 0-.28.123-.446.289l-.105.105c-.219.218-.569.253-1.137.306l-.053.008c-.568.053-4.678.062-5.474.062v-7.198-.06c.551.008 4.416.034 4.845.095 1.495.193 1.635.368 1.766.665.123.28.14.673.14.848 0 .499.306.56.437.56.237 0 .403-.219.455-.455.044-.21.079-.734.105-1.198.018-.245.035-.455.044-.55.044-.447.105-.727.166-.928.035-.14.052-.236.052-.332 0-.437-.271-.464-.332-.464-.122 0-.218.044-.306.088-.044.017-.079.035-.096.035l-.166.026c-.263.035-.639.105-1.041.122-.184.01-.822.01-1.906.01-1.496 0-4.443-.01-5.221-.01h-.35c-.044 0-.192-.008-.411-.008-.638-.018-1.828-.053-2.746-.053-.149 0-.638 0-.638.429 0 .21.218.428.428.428.236 0 .691.035.901.062.726.096.866.384.918 1.25.07.822.07 1.566.07 5.632v4.626c0 2.571 0 4.582-.149 5.65l-.008.096c-.131.778-.193 1.066-.507 1.119-.097.009-.21.035-.315.052-.175.035-.359.062-.499.062-.271 0-.42.218-.42.437 0 .192.105.428.639.428.358 0 .874-.026 1.583-.06.542-.027 1.032-.027 1.172-.027.376 0 1.093 0 2.238.061l.656.018c1.076.035 3.419.07 5.09.07 1.023.008 1.46.008 1.688-.831zM213.143 69.908c0-4.12 0-4.88-.035-5.737-.061-.927-.315-1.207-1.207-1.46-.227-.07-.708-.105-1.119-.105-.298 0-.481-.096-.481-.289 0-.192.218-.254.629-.254 1.478 0 3.254.062 3.831.062.953 0 3.506-.062 4.364-.062 1.783 0 3.821.158 5.317 1.146.804.542 1.976 1.906 1.976 3.725 0 2.012-1.137 3.787-3.883 5.99 2.484 3.062 4.46 5.51 6.157 7.198 1.556 1.565 2.536 1.697 2.999 1.784.28.061.446.061.665.061.227 0 .358.158.358.289 0 .218-.192.28-.542.28h-2.685c-1.565 0-2.326-.158-3.06-.534-1.207-.603-2.257-1.88-3.822-3.988-1.119-1.46-2.291-3.279-2.65-3.699-.148-.166-.315-.192-.507-.192l-3.026-.061c-.131 0-.227.06-.227.218v.376c0 2.528.035 4.626.166 5.772.088.796.219 1.312 1.076 1.434.419.062 1.023.097 1.381.097.219 0 .35.157.35.288 0 .192-.227.28-.577.28-1.627 0-3.428-.096-3.839-.096-.542 0-2.326.096-3.446.096-.358 0-.542-.096-.542-.28 0-.131.096-.288.446-.288.411 0 .735-.035.988-.097.578-.122.735-.638.822-1.434.132-1.145.132-3.28.132-5.772v-4.748h-.009zm3.052 2.099c0 .288.07.384.254.48.612.193 1.95.254 2.658.254 1.119 0 1.495-.096 1.976-.446.857-.603 2.432-1.784 2.432-4.014 0-3.821-3.227-4.81-4.889-4.81-.708 0-1.889.035-2.186.097-.184.06-.254.166-.254.384v8.055h.009zM191.385 69.96c0-4.092 0-4.845-.052-5.71-.053-.919-.271-1.102-1.163-1.286-.219-.052-.674-.079-1.05-.079-.297 0-.463-.104-.463-.288 0-.193.192-.446.594-.446 1.426 0 2.606.079 3.411.079.647 0 2.344-.08 3.314-.08.403 0 .586.255.586.447 0 .184-.166.288-.428.288-.298 0-.464.027-.778.08-.726.14-.936.34-.997 1.285-.053.865-.053 1.618-.053 5.71v3.77c0 3.908.778 5.544 2.099 6.637 1.215.997 2.457 1.093 3.367 1.093 1.18 0 2.929-.376 4.005-1.452 1.478-1.486 1.557-3.9 1.557-6.672V69.96c0-4.092 0-4.845-.053-5.71-.052-.919-.262-1.102-1.154-1.286-.219-.052-.674-.079-.971-.079-.297 0-.463-.104-.463-.288 0-.193.192-.446.568-.446 1.382 0 2.781.079 2.816.079.323 0 2.02-.08 3.069-.08.368 0 .569.255.569.447 0 .184-.166.288-.49.288-.297 0-.455.027-.778.08-.726.14-.945.34-.997 1.285-.053.865-.053 1.618-.053 5.71v2.886c0 2.982-.297 6.165-2.553 8.107-1.915 1.644-3.857 1.932-5.606 1.932-1.434 0-3.349-.078-5.317-1.854-1.373-1.233-2.544-3.235-2.544-7.136V69.96h.008z"/>
</svg>
