<svg xmlns="http://www.w3.org/2000/svg" width="132" height="32" fill="none" viewBox="0 0 132 32">
    <path fill="#C42127" d="M106.018 15.124c-.404-4.415-3.295-5.825-4.057-6.307-.603 1.22-1.062 2.52-1.331 3.892 0 .521-1.121 4.13.846 8.943 2.345 5.794 8.035 9.888 14.695 9.888 2.942 0 5.688-.813 8.05-2.202.686-5.301-3.357-8.341-6.178-10.642-2.942-2.392-2.673-5.853-2.407-7.02.031-.14.073-.27.124-.393-1.698.227-2.088-1.325-2.088-1.325s2.166.619 3.354-.084c.605-.309 1.095-.852 1.095-1.771-.117-1.19-1.064-1.673-1.852-1.748-3.69-.356-5.054 2.61-5.054 2.61-2.073 4.444 2.754 8.684 4.18 10.964.297.48.608 1.157.762 1.648 1.062 4.415-2.216 7.39-5.592 7.408-4.009-.067-5.637-3.262-5.839-5.458-.339-3.393 1.418-5.97 1.292-8.403zm21.744-10.03c.009-.009.012-.017.017-.026C124.885 1.958 120.764 0 116.169 0c-4.654 0-8.933 2.045-11.832 5.225 4.95 4.534 3.76 9.277 3.202 11.35-.95 3.29-1.395 4.713-1.395 6.512-.068 4.13 3.401 4.166 3.586 4.141 2.477-.025 3.777-2.208 3.575-4.04-.134-1.247-.316-2.73-1.883-5.665-2.462-4.976-2.474-7.041-2.073-8.67-1.83-.96-2.23-2.854-1.712-4.367 1.202 1.712 3.69 2.34 5.719 1.367.263-.126.767-.387 1.162-.521 2.769-.76 4.578.605 5.405 1.745 2.373.785 3.558 2.95 3.833 4.663-1.194-1.595-3.34-1.673-4.435-1.057-1.264.681-1.819 1.813-1.914 2.505-.667 3.057 2.782 4.738 6.845 8.033 2.465 2.062 3.272 4.088 3.541 5.234.732-.79 1.328-1.572 1.889-2.497-2.592-2.824-4.172-6.587-4.172-10.72 0-1.647.252-3.233.717-4.729.597-2.174 1.502-3.393 1.502-3.393l.033-.022zm3.962 7.705c-.269-1.387-.723-2.707-1.328-3.94 0 0-.059-.123-.16-.322-1.454 2.18-2.3 4.78-2.3 7.576 0 1.482.241 2.909.678 4.25.244.662.533 1.351.877 2.071.166.322.348.636.538.941.336-.61.645-1.244.9-1.9 1.669-5.054.921-7.858.795-8.676zM38.847 9.756c0-2.656 1.555-5.125 4.475-5.125 1.888 0 2.936.754 3.407 2.606l.302-.151c.087-.74.146-.944.264-2.015-.488-.09-1.777-1.064-3.503-1.064-3.897 0-6.727 2.41-6.727 6.1 0 2.779 1.903 5.785 6.257 5.785 1.258 0 2.773-.4 3.264-.507.314-.594.622-1.69.947-2.64l-.507-.176c-.875 1.731-1.819 2.692-3.6 2.692-2.654 0-4.579-2.238-4.579-5.505zm19.041 5.735c0-.117-.106-.204-.26-.204-.098 0-.289-.009-.48-.068-.22-.07-.56-.176-1.033-1.3-.41-.977-1.16-2.827-1.822-4.46-.613-1.51-1.143-2.819-1.258-3.074-.025-.056-.05-.106-.07-.154-.086-.199-.157-.356-.327-.356-.16 0-.236.132-.401.55l-3.02 7.76c-.255.648-.493 1.012-1 1.074-.099.014-.284.028-.365.028-.117 0-.218.095-.218.204 0 .135.117.205.35.205.35 0 .756-.02 1.025-.031.132-.006.233-.011.272-.011.059 0 .207.005.387.017.26.01.583.028.767.028.264 0 .292-.143.292-.205 0-.048-.017-.204-.233-.204h-.117c-.127 0-.337-.028-.337-.233 0-.199.068-.49.185-.796l.712-1.939v.003l.406-1.104 1.07-3.048.015-.034.016.034 1.25 3.35h-1.451c-.603.023-.886.522-.978.713.005-.012 0 0 .005 0h2.699l.005.008 1.154 2.85c.02.053.026.098.012.131-.017.037-.048.062-.082.076l-.025.01c-.045.02-.117.054-.117.169 0 .16.19.171.456.185l.093.003c.574.02 1.297.03 2.031.03.342-.005.392-.131.392-.207zm8.196-7.217c0-.72-.418-1.311-.78-1.6-.26-.202-.952-.74-2.877-.74-.398 0-.944.011-1.392.02-.306.005-.566.011-.695.011-.034 0-.135 0-.283-.006-.356-.01-.947-.025-1.42-.025-.087 0-.35 0-.35.208 0 .1.117.21.232.21.126 0 .372.017.484.028.398.05.471.187.502.608.033.398.033.753.033 2.72v2.236c0 1.236 0 2.214-.08 2.726l-.01.037c-.064.361-.097.51-.29.552-.124.025-.3.053-.426.053-.149 0-.233.106-.233.21 0 .076.045.207.35.207.342 0 .97-.025 1.272-.039.098-.003.166-.008.18-.008l.165.008c.314.011 1.048.04 1.673.04.322 0 .35-.16.35-.208 0-.1-.081-.21-.233-.21-.123 0-.58-.028-.782-.059-.352-.045-.434-.19-.487-.58-.067-.515-.067-1.493-.067-2.732V6.786c0-.11.025-.137.025-.137.154-.028.709-.087.941-.087l.09-.003c.042 0 .087-.003.137-.003.44 0 1.09.062 1.679.583.798.7.798 1.566.798 1.85 0 1.103-1.28 1.938-2.765 1.938-.213 0-.502 0-.502.236 0 .126.154.22.244.22.067.012.202.018.44.018 2.345 0 4.077-1.256 4.077-3.127zm4.5 7.217c0-.098-.07-.204-.203-.204-.103 0-.372-.026-.566-.056-.296-.045-.338-.182-.383-.566-.06-.507-.06-1.463-.06-2.673V9.804c0-1.928 0-2.275.015-2.662.028-.432.098-.535.373-.594.134-.025.215-.025.302-.025.098 0 .202-.107.202-.205 0-.204-.23-.204-.306-.204-.285 0-.806.016-1.084.022l-.199.006-.221-.006c-.289-.008-.776-.022-1.076-.022-.076 0-.305 0-.305.204 0 .095.086.205.201.205.084 0 .236.014.373.042.19.039.3.143.33.58.029.39.029.737.029 2.661v2.189c0 1.431-.02 2.23-.07 2.67-.048.395-.096.535-.261.571-.11.025-.26.053-.37.053-.132 0-.204.107-.204.205 0 .076.042.205.305.205.277 0 .754-.02 1.04-.034.12-.008.21-.011.23-.011l.14.005c.271.012.907.04 1.467.04.28-.006.3-.16.3-.208zm9.22-8.226c.014-.339.028-.76.028-.995 0-.075 0-.249-.157-.249-.045 0-.1.011-.182.025-.056.012-.12.023-.199.034-.272.04-.566.056-.908.056h-4.841c-.14 0-.63-.014-.995-.059-.204-.025-.33-.07-.417-.104-.062-.022-.115-.042-.163-.042-.112 0-.162.132-.218.275l-.014.048c-.003.03-.042.201-.085.38-.112.5-.196.889-.196.976 0 .126.099.204.188.204.118 0 .19-.059.222-.17.013-.026.025-.054.033-.082.028-.067.062-.151.163-.302.162-.253.448-.334 1.216-.348l1.75-.028v5.108c0 1.21 0 2.166-.058 2.67-.048.4-.12.546-.303.585-.145.037-.269.056-.356.056-.134 0-.201.093-.201.188 0 .205.23.205.302.205.275 0 .824-.023 1.118-.034l.213-.008.171.005c.289.012.891.037 1.42.037.286 0 .306-.154.306-.205 0-.123-.081-.204-.202-.204-.112 0-.398-.028-.571-.056-.317-.045-.364-.2-.412-.566-.056-.507-.056-1.463-.056-2.673v-5.11l1.499.027c1.216.031 1.415.306 1.451.6l.014.126c.011.11.025.311.202.311.106 0 .218-.092.218-.26.006-.057.014-.22.02-.42zm9.518 8.226c0-.117-.112-.204-.264-.204-.098 0-.285-.009-.479-.068-.221-.07-.557-.176-1.028-1.3-.41-.977-1.163-2.827-1.827-4.46-.613-1.51-1.14-2.819-1.255-3.074-.028-.056-.048-.106-.07-.154-.09-.199-.157-.356-.33-.356-.16 0-.236.132-.401.55l-3.02 7.76c-.258.648-.491 1.012-1.004 1.074-.098.014-.283.028-.364.028-.118 0-.216.095-.216.204 0 .135.118.205.348.205.356 0 .759-.02 1.025-.031.132-.006.23-.011.275-.011.056 0 .21.005.386.017.258.01.58.028.765.028.264 0 .292-.143.292-.205 0-.048-.017-.204-.233-.204h-.117c-.127 0-.34-.028-.34-.233 0-.199.07-.49.185-.796l.712-1.939v.003l.404-1.104 1.07-3.048c.005-.014.011-.025.017-.034.002.009.005.02.014.034l1.252 3.35h-1.454c-.597.023-.883.522-.978.713.006-.012 0 0 .006 0h2.698c0 .002.003.005.008.008l1.152 2.85c.025.053.028.098.014.131-.014.037-.048.062-.084.076l-.025.01c-.045.02-.118.054-.118.169 0 .16.19.171.457.185l.095.003c.577.02 1.297.03 2.031.03.347-.005.4-.131.4-.207zm6.9-1.443c0-.24-.103-.291-.19-.291-.115 0-.204.095-.23.247-.045.255-.148.493-.286.652-.268.32-.776.345-1.468.345-.95 0-1.454-.081-1.639-.263-.215-.202-.23-1.16-.23-2.713V9.806c0-1.927 0-2.275.015-2.661.028-.443.1-.552.39-.608.142-.014.33-.031.414-.031.092 0 .201-.081.201-.188 0-.076-.039-.204-.302-.204-.289 0-.877.016-1.194.022l-.221.006-.188-.006c-.291-.008-.837-.025-1.272-.025-.076 0-.305 0-.305.204 0 .098.103.205.204.205.112 0 .325.014.423.028.345.048.407.182.435.594.03.39.03.737.03 2.662v2.188c0 1.21 0 2.166-.072 2.667l-.003.036c-.059.354-.087.502-.255.538-.11.026-.26.054-.373.054-.131 0-.201.106-.201.204 0 .093.053.205.305.205.204 0 .485-.014.748-.031.426-.025.883-.011 1.544.006l.372.008c.614.03 1.326.045 2.236.045.695 0 .807-.048.914-.41.106-.372.199-1.128.199-1.266z"/>
    <path fill="#00377B" d="M11.835 4.665c0-.135-.118-.205-.35-.205-.292 0-.69.02-.925.034-.11.006-.185.011-.213.011-.062 0-.185-.005-.342-.014-.3-.011-.709-.03-1.09-.03-.16 0-.423 0-.423.218 0 .07.034.19.264.19.154 0 .361 0 .507.048.117.056.134.18.134.244 0 .129-.07.361-.126.524-.297.97-2.115 5.724-3.02 7.856L3.539 6.307l-.012-.031c-.204-.524-.378-.978-.378-1.146 0-.084.023-.148.132-.199.104-.048.342-.064.51-.064.216 0 .25-.13.25-.205 0-.204-.312-.204-.497-.204-.37 0-.787.02-1.062.03-.14.009-.246.012-.297.012-.058 0-.187-.006-.361-.012-.35-.01-.877-.03-1.345-.03-.202 0-.479 0-.479.204 0 .123.084.205.219.205.08 0 .322 0 .526.053.463.132.667.258.984 1.065l3.575 8.943.036.087c.266.678.348.882.586.882.176 0 .244-.148.462-.638.065-.143.143-.317.241-.527.322-.687.925-2.13 1.762-4.133l.634-1.524c.538-1.294 1.003-2.41 1.123-2.726.384-.964.594-1.208.762-1.323.252-.156.55-.156.645-.156.243-.003.28-.132.28-.205zm3.855 10.826c0-.098-.073-.204-.204-.204-.104 0-.37-.026-.566-.056-.294-.045-.337-.182-.384-.566-.059-.507-.059-1.463-.059-2.676V9.8c0-1.928 0-2.275.014-2.665.03-.429.095-.535.37-.594.134-.025.218-.025.302-.025.098 0 .202-.107.202-.205 0-.204-.23-.204-.305-.204-.286 0-.804.017-1.085.022l-.198.006-.222-.006c-.291-.008-.779-.022-1.076-.022-.075 0-.305 0-.305.204 0 .096.087.205.204.205.082 0 .236.014.373.042.19.04.3.143.328.58.03.39.03.737.03 2.662v2.188c0 .952-.008 2.112-.07 2.673-.047.386-.092.535-.26.571-.106.026-.26.054-.37.054-.132 0-.204.106-.204.204 0 .093.053.205.305.205.277 0 .754-.02 1.042-.034.118-.008.205-.011.227-.011l.14.005c.272.012.908.04 1.468.04.28-.003.303-.157.303-.205zm7.728-.162c.075-.272.179-1.127.179-1.225 0-.252-.118-.291-.19-.291-.177 0-.208.17-.233.277-.07.496-.247.662-.521.782-.32.126-.922.126-1.247.126-1.28 0-1.883-.157-1.908-.896-.011-.177-.009-.976-.003-1.561.003-.233.003-.432.003-.552v-1.02c.283 0 2.062.017 2.39.056.51.062.549.213.574.314.053.146.053.26.053.372 0 .163.104.22.19.22.133 0 .22-.13.22-.334 0-.082.027-.544.055-.793.02-.264.056-.437.082-.552.014-.065.022-.11.022-.146 0-.148-.092-.204-.174-.204-.078 0-.134.058-.21.14l-.05.05c-.104.104-.266.118-.54.146h-.026c-.264.028-2.214.03-2.583.03V6.87v-.034c.26.003 2.087.017 2.289.045.709.09.776.174.837.317.054.131.068.32.068.4 0 .236.143.264.201.264.115 0 .19-.104.219-.213.02-.098.036-.348.053-.566.006-.118.014-.219.02-.263.017-.208.05-.34.073-.435.016-.064.03-.112.03-.157 0-.21-.134-.218-.16-.218-.055 0-.106.022-.148.04l-.042.019-.081.01c-.12.02-.303.049-.493.063-.084.002-.387.005-.9.005-.706 0-2.098-.003-2.468-.005h-.168l-.19-.006c-.303-.008-.866-.025-1.298-.025-.075 0-.305 0-.305.204 0 .098.104.205.204.205.112 0 .323.014.423.028.348.047.41.182.438.594.03.39.03.737.03 2.661v2.189c0 1.213 0 2.168-.072 2.67l-.009.045c-.056.37-.092.501-.24.53-.046.005-.099.016-.15.024-.083.017-.168.031-.232.031-.132 0-.202.107-.202.205 0 .092.054.204.306.204.17 0 .414-.008.75-.03.256-.012.485-.014.55-.014.182 0 .52 0 1.062.027l.308.009c.507.017 1.616.034 2.404.034.498-.003.703-.003.81-.398zm9.576-9.059c0-.075 0-.246-.16-.246-.042 0-.098.008-.179.025-.053.011-.12.022-.199.034-.269.039-.566.059-.905.059h-4.847c-.134 0-.625-.014-.992-.06-.204-.025-.328-.07-.42-.103-.062-.022-.112-.042-.163-.042-.1 0-.15.11-.215.275l-.017.044-.081.379c-.112.498-.197.888-.197.977 0 .135.107.205.188.205.118 0 .19-.059.222-.17l.033-.082c.028-.067.062-.151.163-.303.162-.252.448-.333 1.213-.347l1.751-.028v5.105c0 1.213 0 2.168-.056 2.673-.048.4-.126.546-.303.585-.145.037-.269.056-.355.056-.135 0-.205.093-.205.188 0 .204.23.204.305.204.275 0 .821-.022 1.116-.033.117-.006.196-.008.213-.008l.168.005c.288.011.888.036 1.42.036.283 0 .305-.154.305-.204 0-.123-.08-.205-.204-.205-.112 0-.398-.028-.566-.056-.317-.044-.367-.199-.412-.566-.059-.507-.059-1.462-.059-2.675v-5.11l1.502.027c1.216.031 1.415.306 1.449.6l.014.126c.008.11.025.31.204.31.104 0 .219-.092.219-.26 0-.056.005-.218.017-.42.016-.339.033-.76.033-.995zM55.479 23.132c0-1.5.88-2.892 2.527-2.892 1.065 0 1.656.426 1.925 1.471l.168-.084c.05-.42.084-.535.151-1.14-.277-.048-1.006-.6-1.978-.6-2.2 0-3.8 1.36-3.8 3.444 0 1.569 1.077 3.267 3.534 3.267.712 0 1.566-.227 1.843-.286.177-.336.35-.956.536-1.49l-.286-.099c-.493.978-1.026 1.522-2.034 1.522-1.502-.003-2.586-1.267-2.586-3.113zM77.324 26.328c0-.067-.047-.137-.14-.137-.073 0-.255-.02-.39-.04-.2-.03-.229-.125-.26-.389-.042-.347-.042-1.003-.042-1.835v-1.502c0-1.322 0-1.56.011-1.826.02-.297.068-.37.255-.407.093-.02.149-.02.21-.02.068 0 .14-.072.14-.14 0-.14-.16-.14-.212-.14-.197 0-.55.012-.746.018l-.134.002c-.014 0-.07-.002-.154-.002-.2-.006-.533-.017-.737-.017-.053 0-.207 0-.207.14 0 .067.058.14.14.14.056 0 .162.011.255.028.131.028.204.098.227.398.022.269.022.507.022 1.826v1.502c0 .653-.008 1.449-.048 1.835-.033.264-.067.365-.176.39-.076.02-.182.04-.255.04-.09 0-.143.07-.143.136 0 .065.04.14.213.14.188 0 .518-.016.712-.025l.157-.005c.01 0 .041 0 .098.003.184.005.622.025 1.005.025.185.002.2-.104.2-.138zM86.472 26.328c0-.067-.048-.137-.14-.137-.07 0-.255-.02-.39-.04-.201-.03-.23-.125-.26-.389-.042-.347-.042-1.003-.042-1.835v-1.502c0-1.322 0-1.56.011-1.826.02-.297.067-.37.255-.407.093-.02.149-.02.21-.02.067 0 .14-.072.14-.14 0-.14-.157-.14-.21-.14-.199 0-.552.012-.745.018l-.135.002c-.016 0-.072-.002-.154-.002-.201-.006-.532-.017-.74-.017-.053 0-.207 0-.207.14 0 .067.06.14.14.14.056 0 .163.011.258.028.13.028.205.098.227.398.017.269.017.507.017 1.826v1.502c0 .653-.003 1.449-.048 1.835-.03.264-.061.365-.176.39-.073.02-.182.04-.255.04-.09 0-.14.07-.14.136 0 .065.033.14.207.14.19 0 .518-.016.712-.025l.16-.005c.005 0 .041 0 .095.003.187.005.622.025 1.005.025.191.002.205-.104.205-.138zM45.246 26.309c-.143-.059-.17-.098-.17-.292 0-.465.039-.997.05-1.137 0-.132.104-.221.17-.221.082 0 .14.117.14.179 0 .11.032.291.082.443.19.636.745.807 1.297.807.765 0 1.228-.482 1.228-1.088 0-.372-.014-.84-.802-1.305l-.51-.303c-1.047-.613-1.465-1.087-1.465-1.843 0-1.048 1.006-1.72 2.236-1.72.574 0 1.025.08 1.258.14.081.022.12.05.12.111 0 .113-.03.354-.03 1.026 0 .182-.068.272-.14.272-.062 0-.155-.048-.155-.149 0-.081.05-.342-.14-.566-.131-.16-.412-.4-.986-.4-.636 0-1.208.333-1.208.916 0 .384.115.832.911 1.277l.361.202c1.169.645 1.558 1.149 1.558 1.922 0 .636-.24 1.149-.882 1.6-.426.303-1.006.353-1.48.353-.515-.003-1.059-.053-1.443-.224zM92.415 26.309c-.14-.059-.171-.098-.171-.292 0-.465.042-.997.053-1.137 0-.132.101-.221.171-.221.081 0 .14.117.14.179 0 .11.031.291.081.443.191.636.749.807 1.3.807.765 0 1.228-.482 1.228-1.088 0-.372-.014-.84-.802-1.305l-.515-.303c-1.042-.613-1.466-1.087-1.466-1.843 0-1.048 1.006-1.72 2.234-1.72.574 0 1.025.08 1.258.14.08.022.12.05.12.111 0 .113-.03.354-.03 1.026 0 .182-.07.272-.14.272-.06 0-.155-.048-.155-.149 0-.081.053-.342-.14-.566-.132-.16-.415-.4-.99-.4-.632 0-1.207.333-1.207.916 0 .384.112.832.908 1.277l.362.202c1.168.645 1.557 1.149 1.557 1.922 0 .636-.24 1.149-.888 1.6-.42.303-1.006.353-1.48.353-.498-.003-1.044-.053-1.428-.224zM83.446 20.08c0-.047 0-.165-.106-.165-.028 0-.067.006-.12.017-.04.008-.082.017-.135.022-.182.026-.384.04-.614.04H79.2c-.096 0-.423-.012-.675-.04-.14-.016-.222-.047-.283-.07-.043-.017-.076-.03-.112-.03-.068 0-.101.072-.146.184l-.011.031c-.003.02-.028.138-.056.255-.073.336-.132.6-.132.661 0 .09.073.14.129.14.078 0 .129-.041.148-.117.006-.017.014-.034.025-.053.017-.048.043-.104.11-.205.115-.17.305-.227.823-.235l1.183-.02v3.455c0 .818 0 1.465-.04 1.807-.03.269-.083.37-.204.398-.098.025-.182.036-.24.036-.09 0-.141.065-.141.13 0 .14.157.14.21.14.185 0 .552-.015.754-.026l.143-.006c.01 0 .053.003.115.003.196.009.602.028.96.028.191 0 .208-.106.208-.14 0-.084-.056-.137-.14-.137-.076 0-.27-.02-.384-.04-.216-.03-.25-.134-.277-.38-.042-.345-.042-.992-.042-1.81v-3.455l1.02.02c.82.022.955.204.977.4l.011.087c.006.076.017.213.135.213.073 0 .148-.062.148-.177 0-.039.003-.148.012-.285.008-.23.02-.513.02-.675zM54.12 26.177c.053-.185.12-.762.12-.83 0-.17-.081-.195-.129-.195-.117 0-.143.114-.157.187-.047.337-.168.449-.35.53-.216.087-.625.087-.846.087-.869 0-1.278-.11-1.294-.611-.006-.118-.003-.661-.003-1.056 0-.157.003-.292.003-.373v-.695c.19.003 1.398.011 1.622.04.344.041.372.145.39.212.033.098.033.177.033.255 0 .107.07.146.129.146.09 0 .145-.087.145-.227 0-.053.02-.37.04-.538.01-.176.036-.294.053-.37.011-.044.017-.075.017-.098 0-.1-.065-.137-.118-.137-.053 0-.09.04-.143.092l-.033.034c-.068.07-.183.081-.365.098l-.017.003c-.179.017-1.496.02-1.75.02v-2.306-.02c.176.003 1.414.011 1.552.03.479.063.526.119.566.214.036.09.044.215.044.271 0 .16.098.18.14.18.076 0 .127-.07.146-.146.014-.067.025-.235.034-.384.005-.078.01-.145.014-.176.014-.143.033-.233.053-.297.011-.045.017-.076.017-.107 0-.14-.09-.148-.107-.148-.039 0-.073.014-.098.028-.011.005-.022.011-.03.011l-.054.009c-.081.01-.204.033-.333.039-.06.002-.264.002-.611.002l-1.673-.002h-.115c-.01 0-.058-.003-.129-.003-.204-.006-.585-.017-.88-.017-.05 0-.207 0-.207.137 0 .068.07.138.138.138.075 0 .221.01.288.02.233.03.278.123.297.4.02.263.02.502.02 1.804v1.482c0 .824 0 1.469-.048 1.81l-.005.031c-.04.25-.062.342-.163.359-.03.003-.064.011-.1.017-.057.01-.113.02-.158.02-.09 0-.137.07-.137.14 0 .061.037.137.208.137.114 0 .282-.009.507-.02.173-.008.327-.008.372-.008.126 0 .356 0 .72.02l.208.005c.344.011 1.095.022 1.63.022.337.003.474.003.547-.266zM91.37 26.177c.053-.185.12-.762.12-.83 0-.17-.081-.195-.129-.195-.117 0-.143.114-.157.187-.047.337-.168.449-.35.53-.216.087-.625.087-.846.087-.866 0-1.278-.11-1.294-.611-.006-.118-.003-.661 0-1.056V23.22c.19.003 1.398.011 1.622.04.344.041.373.145.39.212.033.098.033.177.033.255 0 .107.07.146.129.146.09 0 .145-.087.145-.227 0-.053.02-.37.043-.538.01-.176.039-.294.053-.37.01-.044.017-.075.017-.098 0-.1-.068-.137-.118-.137-.053 0-.09.04-.143.092l-.034.034c-.07.07-.182.081-.364.098l-.017.003c-.182.017-1.499.02-1.754.02v-2.306-.02c.177.003 1.415.011 1.553.03.479.063.523.119.566.214.039.09.044.215.044.271 0 .16.098.18.14.18.076 0 .13-.07.146-.146.014-.067.025-.235.034-.384.005-.078.011-.145.014-.176.014-.143.033-.233.053-.297.011-.045.017-.076.017-.107 0-.14-.087-.148-.107-.148-.039 0-.07.014-.098.028-.014.005-.025.011-.03.011l-.054.009c-.084.01-.204.033-.333.039-.059.002-.264.002-.61.002l-1.674-.002h-.112c-.014 0-.061-.003-.131-.003-.205-.006-.586-.017-.88-.017-.048 0-.205 0-.205.137 0 .068.07.138.138.138.075 0 .22.01.288.02.233.03.278.123.294.4.023.263.023.502.023 1.804v1.482c0 .824 0 1.469-.048 1.81l-.003.031c-.042.25-.061.342-.162.359-.031.003-.067.011-.101.017-.056.01-.115.02-.16.02-.087 0-.134.07-.134.14 0 .061.033.137.204.137.115 0 .28-.009.507-.02.174-.008.331-.008.376-.008.12 0 .35 0 .717.02l.21.005c.345.011 1.096.022 1.631.022.328.003.468.003.54-.266zM68.288 22.398c0-1.32 0-1.564-.01-1.838-.02-.297-.102-.387-.387-.468-.073-.023-.227-.034-.36-.034-.094 0-.153-.03-.153-.092s.07-.082.202-.082c.473 0 1.042.02 1.227.02.305 0 1.123-.02 1.398-.02.571 0 1.224.05 1.703.367.258.174.634.611.634 1.194 0 .644-.365 1.213-1.244 1.92.795.98 1.428 1.764 1.972 2.305.499.502.813.544.961.572.09.02.143.02.213.02.073 0 .115.05.115.092 0 .07-.062.09-.174.09h-.86c-.502 0-.745-.051-.98-.171-.387-.194-.724-.603-1.225-1.278-.359-.468-.734-1.05-.849-1.185-.048-.053-.1-.062-.163-.062l-.969-.02c-.042 0-.073.02-.073.07v.121c0 .81.011 1.482.053 1.85.028.254.07.42.345.459.135.02.328.03.443.03.07 0 .112.05.112.093 0 .062-.073.09-.185.09-.521 0-1.098-.031-1.23-.031-.174 0-.745.03-1.104.03-.115 0-.174-.03-.174-.09 0-.041.031-.091.143-.091.132 0 .236-.012.317-.031.185-.04.235-.205.263-.46.042-.367.042-1.05.042-1.849v-1.521h-.003zm.978.672c0 .093.023.123.081.154.197.062.625.081.852.081.359 0 .48-.03.633-.142.275-.194.78-.572.78-1.287 0-1.224-1.034-1.54-1.567-1.54-.227 0-.605.01-.7.03-.06.02-.082.053-.082.124v2.58h.003zM61.318 22.414c0-1.311 0-1.552-.017-1.83-.017-.293-.087-.352-.373-.411-.07-.017-.215-.025-.336-.025-.095 0-.148-.034-.148-.093 0-.061.061-.143.19-.143.457 0 .835.026 1.093.026.207 0 .75-.026 1.062-.026.128 0 .187.082.187.143 0 .059-.053.093-.137.093-.095 0-.148.008-.25.025-.232.045-.3.11-.319.412-.017.277-.017.518-.017 1.83v1.207c0 1.252.25 1.776.673 2.126.39.32.787.35 1.079.35.378 0 .938-.12 1.283-.464.473-.477.499-1.25.499-2.138v-1.082c0-1.311 0-1.552-.017-1.83-.017-.293-.084-.352-.37-.411-.07-.017-.216-.025-.311-.025s-.149-.034-.149-.093c0-.061.062-.143.183-.143.442 0 .89.026.902.026.103 0 .647-.026.983-.026.118 0 .182.082.182.143 0 .059-.053.093-.157.093-.095 0-.145.008-.249.025-.233.045-.303.11-.32.412-.016.277-.016.518-.016 1.83v.924c0 .955-.095 1.975-.818 2.597-.614.527-1.236.62-1.796.62-.46 0-1.073-.026-1.704-.595-.44-.395-.815-1.036-.815-2.286v-1.26h.003z"/>
</svg>
