<svg xmlns="http://www.w3.org/2000/svg" width="150" height="150" fill="none" viewBox="0 0 150 150">
    <circle cx="75" cy="75" r="75" fill="#fff"/>
    <path fill="#C6DFFF" d="M75 0C33.645 0 0 33.645 0 75s33.645 75 75 75 75-33.645 75-75S116.355 0 75 0zm0 21.876c19.816 0 35.938 16.122 35.938 35.939C110.938 77.63 94.816 93.75 75 93.75c-19.816 0-35.938-16.122-35.938-35.938 0-19.817 16.125-35.936 35.938-35.936zm0 115.623c-20.423 0-38.531-9.891-49.942-25.081C37.562 106.403 55.415 99.999 75 99.999c19.588 0 37.444 6.401 49.942 12.416-11.411 15.196-29.52 25.084-49.942 25.084z"/>
</svg>
