<svg xmlns="http://www.w3.org/2000/svg" width="22" height="24" fill="none" viewBox="0 0 22 24">
    <path fill="#fff" fill-opacity=".6" fill-rule="evenodd" d="M13.248.96v11.52c0 .53.43.96.96.96s.96-.43.96-.96V.96c0-.53-.43-.96-.96-.96s-.96.43-.96.96zm-3.84 4.224c-.587 0-1.157.067-1.703.194-.516.12-1.032-.201-1.152-.718-.12-.516.201-1.032.718-1.152.687-.16 1.403-.244 2.137-.244s1.45.084 2.137.244c.517.12.838.636.718 1.152-.12.517-.636.838-1.152.718-.546-.127-1.116-.194-1.703-.194zM2.597 7.582c.458.268.611.856.344 1.313-.649 1.108-1.021 2.398-1.021 3.777 0 4.136 3.352 7.488 7.488 7.488 4.136 0 7.488-3.352 7.488-7.488 0-1.38-.372-2.669-1.02-3.777-.268-.457-.114-1.045.343-1.313.458-.268 1.046-.114 1.313.344.817 1.394 1.284 3.017 1.284 4.746 0 2.055-.66 3.957-1.778 5.505l4.185 4.184c.375.375.375.983 0 1.358-.375.375-.983.375-1.358 0l-4.106-4.106c-1.674 1.532-3.903 2.467-6.351 2.467C4.212 22.08 0 17.868 0 12.672c0-1.73.467-3.352 1.284-4.746.267-.458.855-.612 1.313-.344zM4.032 4.8v7.68c0 .53.43.96.96.96s.96-.43.96-.96V4.8c0-.53-.43-.96-.96-.96s-.96.43-.96.96zM9.6 6.528c.53 0 .96.43.96.96v4.992c0 .53-.43.96-.96.96s-.96-.43-.96-.96V7.488c0-.53.43-.96.96-.96z" clip-rule="evenodd"/>
</svg>
