<svg xmlns="http://www.w3.org/2000/svg" width="24" height="24" fill="none" viewBox="0 0 24 24">
    <path fill="#fff" fill-opacity=".6" d="M22.01 1h-4.02V.98c0-.54-.44-.98-.98-.98H6.99c-.54 0-.98.44-.98.98V1H1.98c-.54 0-.98.44-.98.99v21.03c0 .54.44.98.98.98h20.03c.54 0 .98-.44.98-.98V1.99c.01-.55-.43-.99-.98-.99zm-14.04.97h8.05v4.04h-1.2c-.41-1.16-1.52-2-2.82-2-1.3 0-2.41.84-2.82 2h-1.2V1.97h-.01zm13.06 20.06H2.97V2.97h3.04v4.02c0 .54.44.98.98.98h3c.54 0 .98-.44.98-.98 0-.56.46-1.02 1.02-1.02s1.02.46 1.02 1.02c0 .54.44.98.98.98h3c.54 0 .98-.44.98-.98V2.97h3.04v19.06h.02z"/>
    <path fill="#fff" fill-opacity=".6" d="M14.31 12.31L11 15.62l-1.31-1.31c-.38-.38-1.01-.38-1.39 0-.38.38-.38 1.01 0 1.39l2 2c.18.18.43.29.7.29.27 0 .51-.1.7-.29l4.01-4.01c.38-.38.38-1.01 0-1.39-.4-.38-1.02-.38-1.4.01z"/>
</svg>
