<svg xmlns="http://www.w3.org/2000/svg" width="24" height="18" fill="none" viewBox="0 0 24 18">
    <path fill="#fff" fill-opacity=".6" fill-rule="evenodd" d="M4.21 2.25c.268-.045.544-.068.825-.068.3 0 .594.026.88.076.109-.336.425-.58.798-.58h14.77c.463 0 .839.376.839.84v10.07c0 .463-.376.839-.84.839h-.167c-.464 0-.84.375-.84.839 0 .463.376.839.84.839h.168c1.39 0 2.517-1.127 2.517-2.518V2.517C24 1.127 22.873 0 21.483 0H6.713c-1.3 0-2.37.985-2.503 2.25zm1.664 9.932c-.273.046-.553.07-.839.07-.286 0-.566-.024-.84-.07v.405c0 1.39 1.128 2.518 2.518 2.518h5.707c.463 0 .839-.376.839-.84 0-.463-.376-.838-.84-.838H6.714c-.463 0-.839-.376-.839-.84v-.405zm9.23.238c0-.927.752-1.679 1.68-1.679.926 0 1.678.752 1.678 1.679s-.752 1.678-1.679 1.678-1.678-.752-1.678-1.678zm1.68-3.357c-1.855 0-3.357 1.503-3.357 3.357 0 .939.385 1.787 1.007 2.397v2.134c0 .29.149.559.394.712.246.153.553.17.813.042l1.142-.558 1.142.558c.26.127.567.111.813-.042s.395-.422.395-.712v-2.134c.621-.61 1.007-1.458 1.007-2.397 0-1.854-1.503-3.357-3.357-3.357z" clip-rule="evenodd"/>
    <path fill="#fff" fill-opacity=".6" fill-rule="evenodd" d="M5.035 12.252c2.78 0 5.035-2.254 5.035-5.035 0-2.78-2.254-5.035-5.035-5.035C2.255 2.182 0 4.436 0 7.217c0 2.78 2.254 5.035 5.035 5.035zm-.671-7.385v-.503c0-.278.225-.504.503-.504s.504.226.504.504v.503h.88c.256 0 .462.21.462.47s-.206.47-.461.47H3.954v.94H5.79c.51 0 .923.42.923.94v.94c0 .519-.413.94-.923.94h-.42v.67c0 .279-.225.504-.503.504s-.503-.225-.503-.503v-.671h-.881c-.255 0-.462-.21-.462-.47s.207-.47.462-.47H5.79v-.94H3.954c-.51 0-.923-.421-.923-.94v-.94c0-.52.413-.94.923-.94h.41z" clip-rule="evenodd"/>
</svg>
