<svg xmlns="http://www.w3.org/2000/svg" width="24" height="24" fill="none" viewBox="0 0 24 24">
    <path fill="#fff" fill-opacity=".6" d="M18.581 21.47c.593 0 1.074.48 1.074 1.073s-.48 1.074-1.074 1.074h-3.169c-1.186 0-2.147-.962-2.147-2.147v-6.441c0-1.186.961-2.147 2.147-2.147h6.441c1.186 0 2.147.961 2.147 2.147v6.44c0 1.186-.961 2.148-2.147 2.148-.593 0-1.074-.481-1.074-1.074 0-.593.481-1.073 1.074-1.073v-6.441h-6.44v6.44h3.168z"/>
    <path fill="#fff" fill-opacity=".6" fill-rule="evenodd" d="M5.367 12.882c-.592 0-1.073.48-1.073 1.073v4.923L2.906 17.49c-.42-.42-1.099-.42-1.518 0-.42.42-.42 1.099 0 1.518l3.21 3.211c.196.2.468.324.77.324.19 0 .37-.05.525-.137.04-.023.08-.049.118-.077.044-.033.085-.07.124-.108l3.212-3.213c.42-.419.42-1.099 0-1.518-.42-.42-1.099-.42-1.518 0L6.44 18.878v-4.923c0-.593-.48-1.073-1.074-1.073zM22.612 5.053c-.42.42-1.099.42-1.518 0l-1.388-1.388v5.996c0 .593-.48 1.074-1.073 1.074s-1.074-.48-1.074-1.074V3.665l-1.388 1.388c-.419.42-1.099.42-1.518 0-.42-.42-.42-1.099 0-1.518l3.22-3.22c.42-.42 1.1-.42 1.519 0l3.22 3.22c.42.42.42 1.099 0 1.518z" clip-rule="evenodd"/>
    <path fill="#fff" fill-opacity=".6" d="M6.174 8.486c.575-.148 1.16.198 1.308.772.148.574-.198 1.16-.772 1.307-.435.113-.886.17-1.343.17C2.403 10.735 0 8.332 0 5.367 0 2.403 2.403 0 5.367 0c2.965 0 5.368 2.403 5.368 5.367 0 .955-.25 1.876-.72 2.686-.297.513-.953.688-1.466.391-.514-.297-.689-.953-.392-1.466.281-.486.43-1.036.43-1.61 0-1.78-1.441-3.221-3.22-3.221-1.778 0-3.22 1.442-3.22 3.22 0 1.779 1.442 3.22 3.22 3.22.276 0 .546-.034.807-.1z"/>
</svg>
