<svg xmlns="http://www.w3.org/2000/svg" width="24" height="24" fill="none" viewBox="0 0 24 24">
    <path fill="#fff" fill-opacity=".6" d="M17.183 20.065c-.555-1.325-1.717-2.322-3.11-2.67l-2.049-.51v-.004c.207-.257.39-.534.545-.831.213-.4.375-.819.483-1.251.064-.037.125-.078.183-.125.057-.044.111-.091.162-.139l.044-.044c.145-.149.263-.32.351-.514l.024-.057c.02-.047.037-.091.05-.132.014-.047.031-.095.038-.132.017-.07.03-.142.04-.22l.166-1.328c.02-.159.017-.318-.003-.473 0-.014-.004-.024-.007-.037l-.007-.044c-.01-.054-.024-.112-.034-.146-.01-.04-.023-.077-.027-.087-.017-.054-.037-.105-.057-.153-.024-.057-.05-.108-.068-.145-.067-.125-.149-.247-.243-.355-.05-.057-.105-.111-.159-.162l.02-.433.034-.034c.811-.862.859-1.994.129-3.106-.447-.693-1.376-1.525-3.208-1.525-.379 0-1.167 0-2.039.325-.253.095-.5.213-.73.348C5.156 6.2 3.915 7.342 3.915 9.57c0 .05 0 .111.004.179.003.067.006.145.013.233.014.162.03.341.047.514-.064.054-.125.115-.179.179-.094.108-.179.23-.236.341-.027.051-.054.105-.078.163-.02.043-.037.09-.05.138-.011.03-.021.061-.025.081-.016.054-.027.112-.04.19l-.007.044-.003.023c-.02.156-.02.311 0 .467l.165 1.328c.01.075.024.146.038.206.013.051.027.102.037.132.017.05.034.098.054.149l.024.054c.087.19.206.362.351.514l.037.03c.054.05.108.098.16.139.06.047.124.088.188.128.109.433.27.852.484 1.248.159.297.341.574.547.831l-2.048.514c-1.393.348-2.556 1.345-3.11 2.67-.122.294-.213.602-.274.913-.064.348.092.696.396.879.696.42 1.463.788 2.278 1.092C4.527 23.635 6.616 24 8.735 24c2.117 0 4.209-.365 6.048-1.051.814-.305 1.578-.673 2.278-1.092.304-.183.46-.534.396-.879-.061-.314-.152-.619-.274-.913zm-2.992 1.302c-1.653.615-3.539.943-5.456.943-1.916 0-3.802-.328-5.455-.943-.504-.19-.984-.402-1.434-.64 0-.003.004-.006.004-.01.348-.83 1.081-1.46 1.96-1.68l2.539-.635c.304-.074.54-.31.615-.615l.23-.923c.071-.284-.01-.581-.213-.79-.23-.237-.43-.511-.591-.819-.166-.31-.288-.639-.362-.973l-.04-.217c-.051-.348-.329-.628-.67-.703l-.014-.003c-.016-.004-.037-.014-.07-.044-.01-.01-.02-.024-.031-.047-.003-.007-.007-.03-.01-.038l-.166-1.325v-.017c.007-.023.01-.047.014-.064l.027-.04c.013-.017.034-.03.06-.04.39-.123.64-.501.592-.907-.034-.274-.078-.676-.101-.983-.004-.068-.01-.129-.01-.186 0-.038-.004-.071-.004-.102 0-.821 0-1.754 2.38-1.805.162-.003.318-.054.453-.142.183-.122.382-.223.592-.3.588-.22 1.149-.22 1.45-.22.878 0 1.467.25 1.801.764.42.638.183.889.071 1.007l-.243.247c-.149.148-.237.348-.247.557l-.013.207-.051 1.04c-.017.37.203.704.548.832.02.007.04.02.054.037l.03-.027c0 .02 0 .04.004.061l-.007.007s.003.007.003.014c.004.013.007.03.007.037v.027l-.166 1.335c0 .003-.01.03-.01.034-.007.013-.017.027-.044.054-.017.013-.034.02-.054.027-.294.07-.527.294-.612.588-.02.071-.044.139-.07.206-.018.04-.028.085-.038.129-.074.338-.193.666-.362.977-.162.304-.358.578-.588.814-.203.21-.284.51-.213.791l.23.923c.075.304.311.54.615.615l2.539.636c.879.22 1.609.848 1.96 1.68 0 .003.004.006.004.01-.453.236-.933.45-1.437.639zM19.975 0c-1.112 0-2.153.412-2.93 1.186-.748.74-1.157 1.718-1.157 2.755 0 1.106.484 2.167 1.335 2.938v.632c0 .767.457 1.437 1.126 1.748.233.52.76.882 1.372.882h.44c.612 0 1.142-.362 1.372-.882.673-.311 1.126-.98 1.126-1.748v-.632c0-.01.007-.02.017-.03.831-.737 1.311-1.789 1.318-2.884.02-2.17-1.785-3.948-4.02-3.965zm1.582 5.584c-.372.331-.585.801-.585 1.291v.633c0 .121-.108.226-.247.24l-.274.03v-.341c0-.28-.226-.507-.506-.507-.281 0-.508.226-.508.507v.344l-.277-.03c-.138-.017-.247-.122-.247-.24v-.632c0-.494-.212-.964-.58-1.291-.488-.43-.755-1.014-.755-1.647 0-.581.233-1.135.656-1.555.456-.452 1.065-.696 1.727-.692 1.305.01 2.356 1.024 2.35 2.264-.004.622-.27 1.2-.754 1.626z"/>
</svg>
