<svg xmlns="http://www.w3.org/2000/svg" width="22" height="24" fill="none" viewBox="0 0 22 24">
    <path fill="#fff" fill-opacity=".6" fill-rule="evenodd" d="M19.5 0c-.276 0-.5.224-.5.5V3h-.333C17.747 3 17 3.746 17 4.667V12c0 .92.746 1.667 1.667 1.667H19v3.166c0 .277.224.5.5.5s.5-.223.5-.5v-3.166h.333c.92 0 1.667-.746 1.667-1.667V4.667C22 3.747 21.254 3 20.333 3H20V.5c0-.276-.224-.5-.5-.5zm-.833 12V4.667h1.666V12h-1.666zM3.333 10.667V16H1.667v-5.333h1.666zm-.333 7h.333C4.253 17.667 5 16.92 5 16v-5.333C5 9.747 4.254 9 3.333 9H3V6.167c0-.276-.224-.5-.5-.5s-.5.224-.5.5V9h-.333C.747 9 0 9.746 0 10.667V16c0 .92.746 1.667 1.667 1.667H2V19.5c0 .276.224.5.5.5s.5-.224.5-.5v-1.833zM7.333 17H9v3H7.333v-3zm-1.666 0c0-.92.746-1.667 1.666-1.667h.334V12.5c0-.276.224-.5.5-.5s.5.224.5.5v2.833H9c.92 0 1.667.746 1.667 1.667v3c0 .92-.747 1.667-1.667 1.667h-.333V23.5c0 .276-.224.5-.5.5s-.5-.224-.5-.5v-1.833h-.334c-.92 0-1.666-.747-1.666-1.667v-3zM13 12.333v6H14.667v-6H13zM14.333 20h.334c.92 0 1.666-.746 1.666-1.667v-6c0-.92-.746-1.666-1.666-1.666h-.334v-3.5c0-.276-.223-.5-.5-.5-.276 0-.5.224-.5.5v3.5H13c-.92 0-1.667.746-1.667 1.666v6c0 .92.746 1.667 1.667 1.667h.333v2.5c0 .276.224.5.5.5.277 0 .5-.224.5-.5V20z" clip-rule="evenodd"/>
</svg>
