<svg xmlns="http://www.w3.org/2000/svg" width="24" height="21" fill="none" viewBox="0 0 24 21">
    <path fill="#fff" fill-opacity=".6" fill-rule="evenodd" d="M18.201 14.332h-4.79v-2.874h1.916c.529 0 .958-.429.958-.958 0-.53-.43-.958-.958-.958h-1.915V7.626h1.915c.529 0 .958-.429.958-.958 0-.529-.43-.958-.958-.958h-2.172c-.331-.573-.95-.958-1.66-.958H8.623V2.586l1.039.575.11.052c.522.21 1.111.177 1.609-.088l2.032-1.08 2.031 1.08c.498.265 1.087.297 1.61.088l.11-.052 1.038-.575v11.746zm0 1.916h-4.79v3.793c0 .73-.783 1.191-1.422.837L9.63 19.57l-2.023 1.077c-.563.3-1.237.3-1.8 0l-2.024-1.076-2.36 1.307C.784 21.232 0 20.771 0 20.041V6.668C0 5.61.858 4.752 1.916 4.752h4.79V.96c0-.73.784-1.191 1.422-.838l2.36 1.308L12.512.353c.562-.3 1.237-.3 1.8 0l2.023 1.077L18.695.12c.639-.353 1.422.108 1.422.838v13.373c0 1.058-.857 1.916-1.916 1.916zM1.916 6.668h9.58v11.746l-1.04-.575-.109-.052c-.523-.21-1.112-.177-1.61.088l-2.031 1.08-2.032-1.08c-.498-.265-1.086-.297-1.61-.088l-.11.052-1.038.575V6.668zM3.832 10.5c0 .53.429.958.958.958h3.83c.53 0 .959-.429.959-.958 0-.529-.43-.958-.958-.958H4.79c-.53 0-.958.429-.958.958zm.958 4.79c-.53 0-.958-.429-.958-.958 0-.53.429-.958.958-.958h3.83c.53 0 .959.429.959.958 0 .529-.43.958-.958.958H4.79zM23.063 0c-.518 0-.938.42-.938.938v2.625c0 .517.42.937.938.937.517 0 .937-.42.937-.937V.938C24 .42 23.58 0 23.062 0z" clip-rule="evenodd"/>
</svg>
