<svg xmlns="http://www.w3.org/2000/svg" width="23" height="24" fill="none" viewBox="0 0 23 24">
    <path fill="#fff" fill-opacity=".6" fill-rule="evenodd" d="M15.328 16.38h5.474V2.954l-1.188.658-.125.06c-.598.238-1.27.201-1.84-.101l-2.321-1.236-2.322 1.236c-.569.302-1.242.339-1.84.1l-.125-.059-1.188-.658v2.476h3.285c.81 0 1.518.44 1.897 1.095h2.481c.605 0 1.095.49 1.095 1.095 0 .604-.49 1.095-1.095 1.095h-2.188v2.19h2.188c.605 0 1.095.49 1.095 1.094 0 .605-.49 1.095-1.095 1.095h-2.188v3.284zm0 2.189h5.474c1.209 0 2.19-.98 2.19-2.19V1.096c0-.834-.896-1.362-1.626-.957l-2.697 1.495-2.313-1.23c-.643-.343-1.414-.343-2.057 0l-2.313 1.23L9.29.139c-.73-.405-1.625.123-1.625.957v4.335H2.19c-1.21 0-2.19.98-2.19 2.19v15.283c0 .834.896 1.362 1.626.957l2.697-1.495 2.312 1.23c.643.343 1.414.343 2.057 0l2.313-1.23 2.697 1.495c.73.405 1.626-.123 1.626-.957v-4.335zM8.757 7.621H2.19v13.424l1.187-.658.125-.06c.598-.238 1.271-.201 1.84.101l2.322 1.235 2.322-1.235c.568-.302 1.241-.339 1.84-.1l.125.059 1.187.658V7.621H8.757zm-3.283 5.474c-.605 0-1.095-.49-1.095-1.095s.49-1.095 1.095-1.095h4.378c.605 0 1.095.49 1.095 1.095s-.49 1.095-1.095 1.095H5.474zM4.38 16.379c0 .605.49 1.095 1.095 1.095h4.378c.605 0 1.095-.49 1.095-1.095 0-.604-.49-1.095-1.095-1.095H5.474c-.605 0-1.095.49-1.095 1.095z" clip-rule="evenodd"/>
</svg>
