<svg xmlns="http://www.w3.org/2000/svg" width="24" height="24" fill="none" viewBox="0 0 24 24">
    <path fill="#fff" fill-opacity=".6" fill-rule="evenodd" d="M12 24C5.373 24 0 18.627 0 12S5.373 0 12 0s12 5.373 12 12-5.373 12-12 12zm4.58-3.313c.79-.418 1.516-.94 2.16-1.548-.393-.173-.813-.33-1.256-.469-.26.733-.563 1.41-.905 2.017zm3.614-3.276c.837-1.266 1.39-2.736 1.564-4.32H18.52c-.057 1.218-.21 2.387-.445 3.479.76.236 1.472.517 2.12.84zm1.564-6.502c-.198-1.795-.88-3.444-1.913-4.814-.594.273-1.235.514-1.915.718.32 1.263.522 2.645.59 4.096h3.238zm-3.53-6.5c-.51-.418-1.061-.786-1.649-1.096.248.44.475.916.68 1.424.336-.1.66-.21.969-.328zM7.42 3.313c-.588.31-1.14.678-1.649 1.096.31.119.633.228.969.328.205-.508.432-.984.68-1.424zM4.155 6.095c.594.273 1.235.513 1.915.718-.32 1.263-.522 2.645-.59 4.096H2.242c.198-1.795.88-3.444 1.913-4.814zm-1.913 6.996H5.48c.057 1.218.21 2.387.445 3.479-.76.236-1.472.517-2.119.84-.837-1.265-1.39-2.735-1.564-4.32zm3.017 6.048c.394-.173.814-.33 1.257-.469.26.733.563 1.41.905 2.017-.79-.418-1.517-.94-2.162-1.548zm5.691 2.358c-.88-.538-1.694-1.724-2.295-3.337.734-.125 1.503-.21 2.295-.25v3.587zM8.05 16.051c.928-.17 1.901-.28 2.901-.325V13.09H7.665c.055 1.049.189 2.043.384 2.96zm5.083 5.394v-3.53c.763.04 1.504.124 2.213.245-.582 1.563-1.365 2.724-2.213 3.285zm0-5.716c.971.048 1.917.157 2.819.322.195-.916.329-1.911.384-2.96h-3.203v2.639zM8.197 7.313c-.276 1.086-.464 2.3-.532 3.596h3.285V7.613c-.947-.044-1.87-.145-2.753-.3zm4.935.296v3.3h3.203c-.068-1.296-.256-2.51-.532-3.596-.858.15-1.753.25-2.671.296zm1.962-2.39c-.632.1-1.289.168-1.962.205V2.555c.732.483 1.415 1.414 1.962 2.664zm-4.144.21c-.702-.036-1.386-.107-2.044-.21.568-1.296 1.281-2.25 2.044-2.716v2.925z" clip-rule="evenodd"/>
</svg>
