<svg xmlns="http://www.w3.org/2000/svg" width="24" height="24" fill="none" viewBox="0 0 24 24">
    <path fill="#fff" fill-opacity=".6" fill-rule="evenodd" d="M1.818 11.09c0-5.12 4.152-9.272 9.273-9.272 5.121 0 9.273 4.152 9.273 9.273 0 .922-.135 1.811-.384 2.65-.143.48.13.987.612 1.13.481.143.987-.13 1.13-.612.3-1.005.46-2.069.46-3.168C22.182 4.966 17.216 0 11.09 0 4.966 0 0 4.966 0 11.09c0 6.126 4.966 11.092 11.09 11.092 1.1 0 2.164-.16 3.17-.46.48-.143.755-.649.611-1.13-.143-.482-.65-.755-1.13-.612-.839.25-1.728.384-2.65.384-5.121 0-9.273-4.152-9.273-9.273zm8.347-5.554v.926H9.26c-1.022 0-1.85.829-1.85 1.85v1.853c0 1.022.828 1.85 1.85 1.85h3.683v1.852H8.314c-.51 0-.925.415-.925.926 0 .51.414.925.925.925h1.851v.957c0 .511.415.926.926.926.511 0 .925-.415.925-.926v-.957h.926c1.022 0 1.85-.828 1.85-1.85v-1.853c0-1.022-.828-1.85-1.85-1.85H9.259V8.313h4.608c.511 0 .926-.415.926-.926 0-.51-.415-.925-.926-.925h-1.85v-.926c0-.51-.415-.925-.926-.925-.511 0-.926.414-.926.925zm5.01 9.64c.26-.261.653-.339.993-.197l7.273 3.03c.349.145.571.492.559.87-.013.378-.259.708-.617.83l-1.783.605 1.77 1.77c.355.355.355.931 0 1.286s-.93.355-1.286 0l-1.77-1.77-.605 1.783c-.122.358-.452.604-.83.617-.378.012-.725-.21-.87-.56l-3.03-7.272c-.142-.34-.064-.732.196-.993zm2.331 2.33l1.256 3.013.301-.887c.09-.268.3-.478.569-.569l.887-.301-3.013-1.256z" clip-rule="evenodd"/>
</svg>
